<mxfile host="app.diagrams.net" modified="2023-11-23T15:02:52.921Z" agent="Mozilla/5.0 (Windows NT 10.0; Win64; x64) AppleWebKit/537.36 (KHTML, like Gecko) Chrome/119.0.0.0 Safari/537.36" version="22.1.3" etag="IUKBY-Mgt2Z7gngzdSPe" type="github">
  <diagram name="第 1 页" id="t-ahP6mDuCEpyyadZloM">
    <mxGraphModel>
      <root>
        <mxCell id="0" />
        <mxCell id="1" parent="0" />
      </root>
    </mxGraphModel>
  </diagram>
</mxfile>
